<?xml version="1.0" standalone="no"?>
<!DOCTYPE svg PUBLIC "-//W3C//DTD SVG 20010904//EN"
 "http://www.w3.org/TR/2001/REC-SVG-20010904/DTD/svg10.dtd">
<svg version="1.0" xmlns="http://www.w3.org/2000/svg"
 width="700.000000pt" height="700.000000pt" viewBox="0 0 700.000000 700.000000"
 preserveAspectRatio="xMidYMid meet">
<metadata>
Created by potrace 1.11, written by Peter Selinger 2001-2013
</metadata>
<g transform="translate(0.000000,700.000000) scale(0.100000,-0.100000)"
fill="#000000" stroke="none">
<path d="M0 3500 l0 -3500 3500 0 3500 0 0 3500 0 3500 -3500 0 -3500 0 0
-3500z m5205 2586 c174 -6 193 -10 201 -41 3 -12 6 -166 6 -341 l1 -319 -47
-215 c-74 -342 -105 -486 -111 -517 -9 -51 -14 -74 -20 -93 -3 -10 -8 -29 -10
-42 -3 -13 -7 -34 -10 -48 -3 -14 -7 -35 -9 -46 -3 -12 -14 -66 -26 -120 -12
-55 -24 -110 -26 -124 -12 -58 -75 -358 -84 -395 -6 -22 -23 -103 -39 -180
-16 -77 -36 -172 -45 -210 -8 -39 -17 -82 -20 -95 -3 -14 -8 -36 -11 -50 -3
-14 -10 -45 -15 -70 -15 -75 -87 -416 -119 -565 -16 -77 -32 -151 -35 -165 -3
-14 -17 -79 -31 -145 -14 -66 -27 -129 -29 -140 -3 -11 -9 -42 -16 -70 -12
-52 -77 -362 -85 -405 -3 -14 -9 -38 -13 -55 l-8 -30 -395 -1 c-217 0 -410 3
-429 6 -29 5 -35 9 -34 30 1 19 62 317 90 445 3 11 7 29 9 41 3 11 19 85 36
165 17 79 32 155 35 169 2 14 11 57 20 95 8 39 16 79 19 90 2 11 11 54 20 95
9 41 18 84 21 95 2 11 26 128 53 260 28 133 53 256 56 274 3 19 7 37 9 40 2 3
7 24 11 46 4 22 8 45 9 50 7 30 16 73 20 95 2 14 9 53 16 87 7 34 10 69 7 77
-13 34 -218 112 -425 162 -115 28 -126 30 -217 40 -133 15 -138 14 -160 -32
-20 -41 -56 -118 -96 -209 -150 -341 -342 -888 -454 -1297 -42 -156 -119 -476
-130 -543 -3 -16 -8 -41 -10 -55 -10 -48 -13 -65 -19 -114 -4 -27 -9 -52 -11
-55 -1 -3 -6 -39 -10 -79 -3 -41 -9 -83 -11 -95 -3 -12 -7 -89 -9 -172 -5
-164 10 -277 46 -348 11 -21 18 -41 15 -44 -7 -7 -142 -6 -221 2 -258 25 -424
127 -512 312 -19 39 -38 98 -43 130 -9 63 -6 400 4 448 4 17 11 57 17 90 76
446 408 1312 708 1849 34 60 61 112 61 114 0 3 14 27 31 54 16 28 28 53 25 56
-11 10 -165 -2 -226 -18 -19 -5 -46 -11 -60 -14 -133 -24 -278 -100 -344 -180
-41 -50 -44 -68 -17 -112 36 -59 45 -165 21 -238 -29 -90 -176 -157 -333 -152
-242 9 -373 162 -345 404 10 86 32 150 77 219 121 184 356 328 666 406 64 17
90 21 230 42 87 13 520 15 541 3 5 -3 34 31 64 76 30 44 95 139 145 210 49 71
103 147 119 170 46 67 252 321 335 414 148 168 332 346 502 488 174 144 440
298 614 354 79 26 211 47 270 44 22 -2 108 -5 190 -8z"/>
<path d="M4525 5623 c-81 -53 -200 -164 -305 -282 -170 -191 -325 -421 -532
-786 -125 -220 -161 -295 -146 -300 7 -3 87 -23 178 -45 91 -23 179 -45 195
-50 212 -68 285 -90 310 -92 l29 -3 23 100 c12 55 25 111 28 125 4 21 34 169
50 244 3 11 14 63 24 115 11 53 39 182 61 286 22 105 43 204 46 220 2 17 15
82 29 145 28 133 65 328 65 341 0 15 -13 11 -55 -18z"/>
</g>
</svg>
