<?xml version="1.0" standalone="no"?>
<!DOCTYPE svg PUBLIC "-//W3C//DTD SVG 20010904//EN"
 "http://www.w3.org/TR/2001/REC-SVG-20010904/DTD/svg10.dtd">
<svg version="1.0" xmlns="http://www.w3.org/2000/svg"
 width="450.000000pt" height="450.000000pt" viewBox="0 0 450.000000 450.000000"
 preserveAspectRatio="xMidYMid meet">
<metadata>
Created by potrace 1.10, written by Peter Selinger 2001-2011
</metadata>
<g transform="translate(0.000000,450.000000) scale(0.100000,-0.100000)"
fill="#8b2a24" stroke="none">
<path d="M0 2250 l0 -2250 2250 0 2250 0 0 2250 0 2250 -2250 0 -2250 0 0
-2250z m3458 1655 c22 -7 22 -8 22 -221 l0 -214 -145 -682 c-81 -376 -187
-874 -236 -1108 -84 -395 -122 -573 -134 -628 l-5 -22 -281 0 c-262 0 -280 1
-275 18 2 9 18 82 35 162 17 80 80 380 141 668 60 288 110 530 110 537 0 38
-323 136 -458 139 l-52 1 -41 -90 c-328 -732 -533 -1619 -425 -1836 9 -18 16
-34 16 -36 0 -7 -137 -3 -190 6 -142 24 -238 90 -288 199 -22 48 -27 75 -30
169 -5 127 7 222 48 390 73 299 264 767 442 1086 l66 117 -41 0 c-67 0 -218
-35 -273 -63 -54 -27 -110 -79 -120 -110 -3 -11 1 -26 12 -38 26 -29 31 -124
9 -166 -26 -48 -107 -85 -188 -86 -113 -1 -189 39 -227 118 -31 65 -25 177 13
252 109 214 462 351 842 327 l110 -6 69 103 c366 550 767 917 1103 1010 56 15
94 18 208 15 77 -3 150 -7 163 -11z"/>
<path d="M2884 3597 c-135 -100 -291 -291 -438 -537 -82 -137 -180 -319 -175
-324 2 -2 58 -15 124 -31 66 -15 169 -44 228 -65 70 -24 110 -33 112 -26 13
44 216 1018 212 1022 -2 2 -31 -15 -63 -39z"/>
</g>
</svg>
