<svg version="1" xmlns="http://www.w3.org/2000/svg" width="2666.667" height="2666.667" viewBox="0 0 2000.000000 2000.000000"><path d="M1537.9 147.4c-.2.2-4.2.6-8.9 1-47.7 3.3-105.4 21.6-157.5 49.9-14.9 8.1-21.8 12-30.8 17.5-3.7 2.3-7 4.2-7.3 4.2-.2 0-1 .5-1.7 1-.7.6-5.7 3.9-11.2 7.4-18.7 12-41.1 27.6-57 39.8-5.9 4.5-42 33.6-44 35.4-1.1 1.1-5.6 5-10 8.8-31.4 27.1-89.7 84.4-110.2 108.2-1 1.1-5 5.6-9 10-9.8 10.8-9.7 10.7-25.7 29.4-7.8 9.1-18.2 21.4-23.1 27.5-4.9 6-9.2 11.2-9.5 11.5-.3.3-1.8 2.3-3.5 4.5-1.6 2.2-3.5 4.6-4.2 5.3-.7.8-2.6 3-4.1 5-1.5 2.1-2.9 3.9-3.2 4.2-.3.3-2.1 2.5-4 5s-4.1 5.2-4.7 6c-2 2.4-22.6 29.4-24.8 32.5-1.1 1.5-2.9 3.9-4.1 5.4-1.2 1.4-8 10.7-15.2 20.6-7.2 9.9-13.5 18.5-14 19.1-.5.5-2.2 3-3.8 5.5-1.6 2.4-3.2 4.6-3.5 4.9-.6.5-24.2 34.4-36.4 52.3-7.1 10.4-22.3 33.5-35.3 53.5l-9.2 14.3-3.8-.5c-5.8-.8-13.9-1.5-23.2-2.1-4.7-.4-10.7-.8-13.5-1-37.3-2.7-100.5-2.7-125.5 0-1.9.2-6.1.6-9.2.9-12.1 1.2-17 1.7-19.1 2.2-1.2.2-4.2.6-6.7.9-23.7 2.8-62.4 11.4-91 20.2-8.6 2.6-34.8 11.7-38.5 13.3-1.1.5-8.5 3.7-16.5 7.1-16 7-27.8 12.9-41.5 20.8-12.1 6.9-11.4 6.5-25 15.8-39.4 27-70 62.1-85.5 98.1-3.8 8.9-9.2 26.1-10.6 33.7-.3 2.2-.8 4.9-1 6-.2 1.1-.7 5.6-1.1 10-4.1 47.8 11.5 85.9 44.7 109.1 2.5 1.7 9.3 5.5 15.1 8.3 13.2 6.4 28.6 10.5 47.4 12.7 4.1.5 29.3.5 33 0 1.7-.2 5.5-.7 8.5-1 11.1-1.4 25.5-5.3 36-9.8 25.9-11 42.4-27.4 48.6-48.4 1.9-6.5 2.7-27.1 1.3-33.3-.4-2-1-5-1.3-6.6-2.7-15.5-16.4-40.5-22.2-40.5-2.2 0-1.7-1.6 3.6-12.2 17.3-34.3 50.5-58 100-71.4 13.3-3.6 27.9-7.3 32-8 2.5-.4 4.7-.8 5-.9.3-.1 2.5-.5 5-.9 2.5-.5 5.4-1 6.5-1.2 3.4-.7 19.8-3.3 24.5-3.9 2.5-.3 6.1-.7 8-1 9.1-1.2 18.6-2.1 30-3 4.7-.3 10.4-.8 12.8-1.1 2.3-.3 4.2-.2 4.2.4 0 .5-3.2 6.5-7.1 13.3-9.1 15.9-30.2 53.7-36.4 65.4-2.6 4.9-6.2 11.7-8 15-12.2 22.8-41.6 81-49.8 98.5-1.9 4.1-5.9 12.7-9 19-4.8 10.1-7.6 16.2-18.2 39.5-1.2 2.7-3.4 7.5-4.8 10.5-6.1 13.4-7.7 17.1-11.7 26.5-2.3 5.5-5.3 12.2-6.5 15-7.1 15.6-34.7 82.9-45.2 110.5-21.2 55.4-39.6 108.9-51.8 151-7.3 24.8-16.6 59.1-18 66-.2.8-1.9 8.2-3.8 16.5-3.3 13.7-8.2 36.4-9.2 42.5-.5 2.5-1.1 6.1-1.9 10.2-.8 4.2-4.4 26.2-5 30.3-.3 2.2-.7 5.6-1 7.5-1.2 8.1-1.5 10.8-2.1 17-.4 3.6-.8 8.1-1.1 10-1.9 16.9-2.6 63.9-1.1 81.5 1.6 19.6 5.5 39.8 10.9 56.5 9.2 28.9 31.9 60.2 57.5 79.4 27.8 20.9 69.5 35.7 109.8 39.1 22.1 1.8 28.5 2.2 48 3 21.4.9 39.5 1.3 39.5.8 0-.3-1.3-2.4-3-4.8-9.2-13.3-18-37.7-21-58-3.1-21.2-3.3-73.3-.5-105.5.3-2.5.7-7.7 1-11.5.4-3.9.8-8.6 1-10.5.2-1.9.6-6.4 1-10 .3-3.6 1-9.7 1.6-13.5.5-3.9 1.2-8.8 1.4-11 .3-2.2 1-7.2 1.5-11 .6-3.9 1.2-8.4 1.5-10 .2-1.7.6-4.8 1-7s1.3-8.1 2.1-13c.8-5 1.6-10.1 1.9-11.5.3-1.4.8-4.1 1.1-6 .2-1.9.9-5.8 1.5-8.5 1.3-6.8 1.5-8.3 2.4-13.5.4-2.5.9-5.4 1.2-6.5.3-1.1.7-3.1 1-4.5.2-1.4 1.6-8.1 2.9-15 1.4-6.9 4.1-19.7 6-28.5 2-8.8 3.7-16.7 3.9-17.5.3-1.5 8.4-36.3 9-39 .2-.8 1.4-5.3 2.5-10 1.2-4.7 2.3-9.2 2.5-10 5.4-23.1 13.1-51.3 36.1-130.5 16.9-58.4 53.7-166.6 81.6-240 9.1-24 24.4-63 25.8-66 .5-1.1 3.4-8.3 6.5-16 3.1-7.7 6.2-15.4 7-17 .8-1.7 7.2-16.7 14.4-33.5 11.1-26.3 16-37.6 20.2-46.5.5-1.1 4.7-10.3 9.3-20.5 7.5-16.4 8.7-18.5 10.8-18.5 2.1.1 24.1 2.3 29.8 3 24.7 3.2 65.8 10.7 85 15.5 4.7 1.2 9.9 2.4 11.5 2.6 4.5.9 31.4 8.7 45 13.2 24.9 8.3 55 20 75.3 29.3 3.5 1.6 6.5 2.9 6.7 2.9.3 0 3 1.2 6 2.6 6.7 3.2 6.8-.7-.8 34.9-3.1 14.3-5.9 27.3-6.2 29-.9 4.4-1.2 5.8-6.6 31.4-2.8 13-5.3 24.7-5.5 26.1-.8 4.1-3.2 15.7-6 28.5-1.4 6.6-2.8 12.9-3 14-.2 1.1-.7 3.3-1 5-.2 1.6-1.4 6.8-2.4 11.5-1.1 4.7-2.2 9.6-2.4 11-.2 1.4-.9 4.5-1.5 7-1 4.5-1.5 6.8-2.6 12.5-.7 3.4-10.2 48.7-13.5 64-1.2 5.5-2.4 11.3-2.6 13-.3 1.6-1.1 5.5-1.9 8.5-.7 3-2.1 9.1-2.9 13.5-1.7 8.3-2.3 11.2-3 14.2-.7 2.8-3.8 17.6-4.3 20.3-.2 1.4-1 5.3-1.8 8.6-.8 3.4-1.6 7.3-1.9 8.5-1.7 8.4-2.7 13.8-3.2 16.3-.3 1.6-.7 3.2-.9 3.6-.2.4-.6 2-.9 3.6-.5 2.5-1.3 6.9-3.2 16.3-.3 1.4-2.1 9.6-3.9 18.3-1.9 8.6-3.7 17-4 18.5-.3 1.5-.7 4.1-1 5.8-.3 1.6-.8 3.8-1.1 4.7-.3.9-.7 2.5-.9 3.5-.2 1-1.3 6.3-2.5 11.8-3.1 15-9.1 43.7-9.6 46.5-.3 1.4-.9 4.1-1.4 6-.5 1.9-1.2 4.8-1.4 6.5-.8 4.1-.9 4.8-4.9 23.5-2 9.1-3.9 18.1-4.2 20-.3 1.9-1.2 6.2-2 9.5s-3.5 15.9-6 28c-2.6 12.1-5.5 26.3-6.7 31.5-1.1 5.2-2.2 10.6-2.4 12-.3 1.4-1.6 7.7-3 14s-2.8 12.6-3 14c-.4 2.1-5.8 28-6.9 33-.2.8-1.2 5.7-2.3 10.8l-1.9 9.2 144-.2 144.1-.3 2.8-13c1.6-7.2 3-14.1 3.3-15.5.3-1.4 2.7-12.9 5.4-25.5 2.7-12.7 5.2-24.1 5.5-25.5.2-1.4 2.1-10.2 4.1-19.5 2-9.4 6.1-28.7 9.1-42.9 3-14.3 5.8-27.6 6.4-29.5.5-2 1.2-5.2 1.5-7.1.3-1.9 3.7-18.1 7.6-36 3.8-17.9 7.1-33.4 7.4-34.5.2-1.1.6-3.1.9-4.5 2-8.9 5.9-27.9 6.2-30 .3-1.4.9-3.9 1.4-5.5.5-1.7 1.1-4.4 1.4-6 .2-1.7 2-10.5 4-19.7 4.3-20.2 4-18.6 7.1-33.3 1.4-6.6 2.7-12.9 3-14 .2-1.1 1.7-8.3 3.4-16 1.6-7.7 3.2-15.1 3.5-16.5.2-1.4 1.4-7 2.6-12.5 1.2-5.5 2.4-11.1 2.6-12.4.3-1.2 1.1-5.1 1.9-8.5.8-3.3 1.6-7.2 1.9-8.6.2-1.4 1.4-7 2.6-12.5 1.2-5.5 2.4-11.1 2.6-12.5.3-1.4.7-3.3 1-4.2.3-.9.7-2.7.9-4 .3-1.3.7-3.4 1-4.8.3-1.4.7-3.4.9-4.5.3-1.1 1.8-8.5 3.5-16.5 1.8-8 3.4-15.6 3.6-17 .2-1.4 2.2-10.7 4.4-20.7 2.2-9.9 4.3-19.5 4.6-21.2.3-1.7 1.2-5.9 2-9.3.8-3.5 1.7-7.9 2-9.8.3-1.9.8-4.3 1.1-5.2.5-1.6 1-4.1 1.9-8.8.2-1.4 3.3-16 6.9-32.5 3.5-16.5 7.2-33.4 8-37.5.9-4.1 2.3-10.7 3.1-14.5.9-3.9 1.8-8.6 2.1-10.5.3-1.9.8-3.8 1-4.1.2-.3.6-2.1.9-4 .3-1.9 1.7-8.4 3-14.4 1.4-6.1 2.9-13.3 3.4-16 .9-4.6 3.9-18.8 7.7-36 .8-3.9 1.7-8.1 2-9.5.3-1.4 1-4.5 1.5-7 .6-2.5 1.2-5.4 1.5-6.5.4-2.4 2.6-12.6 2.9-14 .1-.6.5-2.8.9-5s1.2-5.4 1.6-7c.5-1.7 1.1-4.4 1.4-6 .2-1.7 3-14.7 6-29 3.1-14.3 5.9-27.4 6.2-29 .3-1.7.9-4.6 1.4-6.5.5-1.9 1.2-4.7 1.5-6.3.3-1.5.7-3.9 1-5.5 1-4.8 10.5-49.3 13.6-63.7 1.7-7.7 3.3-15.1 3.5-16.5.3-1.4 1-4.5 1.5-7 .6-2.5 1.3-5.6 1.5-7 .4-2.2 3.7-17.6 5-23.5.3-1.1.9-4 1.4-6.5.5-2.5 2.7-12.8 4.9-23s4.2-19.6 4.5-21c.3-1.4.8-3.6 1.1-5 .3-1.4.8-3.9 1.1-5.5.3-1.7 1.1-5.8 1.9-9.1 1.4-6.2 2.1-9.1 3-14.2.3-1.5.8-3.4 1-4.2.2-.8.7-2.9 1-4.5.6-3.4.6-3.5 3.5-17 1.2-5.5 2.4-11 2.6-12.2.5-2.5 3.8-18.2 8.4-39.3 3.4-15.9 3.7-16.9 4.7-22 .4-1.9.8-3.7.8-4 .2-.8 1.7-8.4 2-10 .2-.8.8-3.3 1.3-5.5.6-2.2 1.3-5.4 1.6-7 .2-1.7 1.1-6.2 2-10 .8-3.9 1.7-8.2 2-9.5.2-1.4.7-3.2 1-4 .3-.8.8-3.1 1.3-5 .4-1.9.9-57.4 1-123.2l.3-119.8-2.7-.6c-1.6-.3-4.4-1-6.3-1.5-1.9-.4-5.1-1.1-7-1.4-1.9-.3-4.6-.7-6-1-1.4-.3-4.7-.7-7.5-1.1-2.7-.3-5.9-.8-7-1-1.1-.2-4.5-.6-7.5-.9-3-.3-6.4-.7-7.5-1-1.1-.2-6-.7-11-1-4.9-.4-10.1-.9-11.5-1.1-3.1-.6-56.5-1.6-57.1-1zm-136.3 144.3c-.4 1.6-.9 4.1-1.2 5.8-.3 1.6-1.1 5.8-1.9 9.1-.8 3.4-1.6 7.3-1.9 8.5-.2 1.3-2 10-4.1 19.4-2 9.3-4.5 21-5.6 26-1.1 4.9-2.1 10.1-2.4 11.5-.2 1.4-1.6 7.7-3 14-2.2 9.8-4.9 22.6-6 28-.2.8-1.9 9.1-4 18.5-2 9.3-3.9 18.3-4.1 20-.3 1.6-1.2 5.5-1.9 8.5s-1.6 6.8-1.9 8.5c-.3 1.6-.7 3.9-1 5-.2 1.1-1.1 5.2-2 9-1.4 6.7-1.8 8.7-3.2 15.2-.3 1.6-1.9 9.1-3.5 16.8-1.7 7.7-3.3 15.1-3.5 16.5-.3 1.4-.9 4.1-1.4 6-.5 1.9-1.1 4.6-1.3 6-.4 1.9-5.4 25.7-7.2 34-.4 1.9-4.5 20.8-5.1 23.5-1 5-2.5 12.2-2.9 14.3-.2 1.3-.7 3.2-1 4.2-.3 1-.8 2.9-1 4.2-.7 3.4-3.4 17-4 19.3-1.3 5.8-5.7 26.3-6.1 28.5-.3 1.4-1.4 6.3-2.4 11s-2.1 9.6-2.4 11c-.9 5.2-7.7 36.7-8.6 40.5-.6 2.2-2.2 9.6-3.6 16.5s-2.7 13.2-2.9 14c-.1.9-2.2 10.3-4.5 21-8.4 39.8-9.4 44-10.1 45.2-.7 1.1-2.5.7-10.4-2.8-6.1-2.7-55.7-20.3-61.5-21.9-.8-.2-7.6-2.3-15-4.5-7.4-2.3-14.8-4.6-16.5-5-1.6-.5-6.1-1.8-10-2.9-14.6-4.1-30.5-8.3-44.5-11.6-8-2-15.8-3.9-17.5-4.5-2.8-.8-24.1-5.7-29.5-6.7-1.3-.2-6.1-1.3-10.6-2.3-4.5-1.1-9.7-2.2-11.6-2.5-9.5-1.8-13.4-2.6-14.8-2.9-.8-.3-1.6-.5-1.8-.5-.3-.1 19.6-39 26.3-51.6 2.1-3.9 5.8-10.8 8.3-15.5 2.4-4.7 5.3-9.9 6.2-11.5 1-1.7 3.4-6.2 5.5-10 7.3-13.6 9.9-18.2 23.3-41.5 12.4-21.5 16.6-28.8 19.2-33 6-9.8 11-18.2 11-18.6 0-.3.5-1 1.1-1.7.5-.7 4.5-6.8 8.7-13.7 11.8-19 17.6-28.1 19-29.5.6-.8 1.2-1.7 1.2-2 0-.7 23.8-36.1 31.5-46.8 2.4-3.4 6.4-8.9 8.7-12.2 10-14 39.1-52 41.8-54.5.3-.3 2.8-3.2 5.5-6.5 9.8-11.7 10.9-13 19.3-22.5 8.9-10 44-45.1 52.6-52.5 3.7-3.3 7.3-6.5 8-7.1 5.7-5.3 30.6-23.9 41.6-31 5.9-3.9 20.2-12.4 20.8-12.4.2 0 .1 1.2-.2 2.7z"/></svg>